<?xml version="1.0" encoding="UTF-8"?>
<svg id="Layer_3" xmlns="http://www.w3.org/2000/svg" version="1.1" viewBox="0 0 576 576">
  <!-- Generator: Adobe Illustrator 29.8.3, SVG Export Plug-In . SVG Version: 2.1.1 Build 3)  -->
  <defs>
    <style>
      .st0 {
        fill: #231f20;
        stroke: #231f20;
        stroke-miterlimit: 10;
      }
    </style>
  </defs>
  <path class="st0" d="M220.35,194.66c-9.33,11.01-21.52,20.3-33.85,27.86.02-.01.05-.02.07-.04,17.7-9.79,27.84-20.51,33.78-27.82Z"/>
  <path class="st0" d="M132.28,247.2c7.56-1.17,18.31-5.79,31.15-12.32-17.47,8.2-31.15,12.32-31.15,12.32Z"/>
  <path class="st0" d="M217.46,22.75c-86.61,0-156.83,70.22-156.83,156.83s70.22,156.83,156.83,156.83,156.83-70.22,156.83-156.83S304.08,22.75,217.46,22.75ZM245.1,94.6l14.07-12,.03,73.46,11.84.15-12.33,12.05h-13.61v-73.66ZM288.88,183.95l5.51,6.66-23.59,17.48.13-10.15,17.94-13.99ZM236.86,158.48c-1.06,11.03-5.39,21.03-11.71,30.01,0,0,.01-.02.02-.02-12.15,40.4-46.24,56.7-80.74,65.45-19.69,4.99-33.21,2.99-33.21,2.99l-1.81-158.93,23.82-18.75-.95,167.98,1.5-168.16c23.97-8.74,108.77,20.47,103.08,79.44ZM243.65,240.44l1.45-71.82,13.89.06,11.39,10.44-11.84.02-.98,73.45-13.91-12.15ZM329.67,253.16l-35.94-42.28-35.58,41.51.95-72.81,11.68.13-.02,29.4,23.96-18.17,22.34,21.85.79-32.58,12.77.14-.95,72.81ZM304.56,199.94l2.88-32.68,12.13.07,10.4,12.49-12.57.16-.42,32.51-12.41-12.55ZM319.59,166.79h-12.16l-1.95-31.03,12.57-12.41v32.51l12.57.3-11.03,10.64ZM318.51,155.62l-.36-32.58-22.63,21.61-5.6,6.6-17.76-14.19v-10.15l23.36,17.74-23.72-18.43-.36,29.4h-11.68v-72.81l35.03,41.89,36.49-41.89v72.81h-12.77Z"/>
  <path class="st0" d="M163.43,234.88c7.27-3.41,15.2-7.54,23.07-12.36-8.21,4.54-15.96,8.74-23.07,12.36Z"/>
  <path class="st0" d="M225.15,188.48c-1.19,1.53-2.74,3.65-4.79,6.18,1.7-2,3.3-4.06,4.79-6.18Z"/>
  <path class="st0" d="M153.4,130.52l.32-19.03c20.46-3.39,37.65,6.29,48.76,15.88,5.34,4.61,9.29,9.72,11.79,14.9-3.82-9.16-12.09-16.89-20.95-22.17-9.74-5.81-22.59-10.96-34.51-9.93-.63.06-5.88.67-5.88,1.45v93.64s36.97-12.1,54.52-31.75c-.05.03-.09.07-.14.1,10.37-38.36-43.4-41.39-53.9-43.08Z"/>
  <path class="st0" d="M216.45,154.48c-.41,6.91-3.88,13.29-9,19.02,10.64-7.09,12.6-19.32,6.83-31.23,1.6,3.84,2.43,7.94,2.18,12.21Z"/>
</svg>